<svg xmlns="http://www.w3.org/2000/svg" xmlns:xlink="http://www.w3.org/1999/xlink" width="1000" height="1000" viewBox="0 0 1000 1000">
  <defs>
    <clipPath id="clip-User">
      <rect width="1000" height="1000"/>
    </clipPath>
  </defs>
  <g id="User" clip-path="url(#clip-User)">
    <g id="Ellipse_1" data-name="Ellipse 1" transform="translate(245 42)" fill="#fff1d0" stroke="#707070" stroke-width="20">
      <circle cx="255.5" cy="255.5" r="255.5" stroke="none"/>
      <circle cx="255.5" cy="255.5" r="245.5" fill="none"/>
    </g>
    <g id="Path_1" data-name="Path 1" transform="translate(0 537)" fill="#f0f874">
      <path d="M 602.330078125 452.3941650390625 C 339.421875 452.3941650390625 61.90636825561523 451.5928344726562 8.281591415405273 450.738037109375 C 13.32406330108643 194.7560424804688 218.5548553466797 10.00001621246338 499.9999694824219 10.00001621246338 C 778.5660400390625 10.00001621246338 981.6741333007812 194.8684997558594 986.5425415039062 450.9736022949219 C 951.2326049804688 451.8702392578125 812.0397338867188 452.3941650390625 602.330078125 452.3941650390625 Z" stroke="none"/>
      <path d="M 500.0000305175781 19.99996948242188 C 227.9921264648438 19.99996948242188 28.65069580078125 195.8187866210938 18.5858154296875 440.8742065429688 C 90.551025390625 441.6734619140625 354.1945190429688 442.3941345214844 602.3325805664062 442.3941345214844 C 795.77734375 442.3941345214844 929.4548950195312 441.950439453125 976.2493286132812 441.1827087402344 C 966.45263671875 195.9591064453125 769.20068359375 19.99996948242188 500.0000305175781 19.99996948242188 M 500.0000305175781 -3.0517578125e-05 C 776.142333984375 -3.0517578125e-05 996.6320190429688 181.7815551757812 996.6320190429688 460.4092712402344 C 996.6320190429688 463.7771301269531 -1.8135986328125 462.2226867675781 -1.81353759765625 460.4092712402344 C -1.81353759765625 181.7815551757812 223.8576049804688 -3.0517578125e-05 500.0000305175781 -3.0517578125e-05 Z" stroke="none" fill="#707070"/>
    </g>
  </g>
</svg>
